<svg xmlns="http://www.w3.org/2000/svg" xmlns:xlink="http://www.w3.org/1999/xlink"
     width="207px" height="207px"
     viewBox="0 0 100 100" preserveAspectRatio="xMidYMid">
    <g transform="rotate(0 50 50)">
        <rect x="38" y="22.5" rx="7.68" ry="5.5" width="24" height="11" fill="#71a2fe">
            <animate attributeName="opacity" values="1;0" keyTimes="0;1" dur="1.408450704225352s"
                     begin="-1.370384468976018s" repeatCount="indefinite"></animate>
        </rect>
    </g>
    <g transform="rotate(9.72972972972973 50 50)">
        <rect x="38" y="22.5" rx="7.68" ry="5.5" width="24" height="11" fill="#71a2fe">
            <animate attributeName="opacity" values="1;0" keyTimes="0;1" dur="1.408450704225352s"
                     begin="-1.3323182337266843s" repeatCount="indefinite"></animate>
        </rect>
    </g>
    <g transform="rotate(19.45945945945946 50 50)">
        <rect x="38" y="22.5" rx="7.68" ry="5.5" width="24" height="11" fill="#71a2fe">
            <animate attributeName="opacity" values="1;0" keyTimes="0;1" dur="1.408450704225352s"
                     begin="-1.2942519984773504s" repeatCount="indefinite"></animate>
        </rect>
    </g>
    <g transform="rotate(29.18918918918919 50 50)">
        <rect x="38" y="22.5" rx="7.68" ry="5.5" width="24" height="11" fill="#71a2fe">
            <animate attributeName="opacity" values="1;0" keyTimes="0;1" dur="1.408450704225352s"
                     begin="-1.2561857632280167s" repeatCount="indefinite"></animate>
        </rect>
    </g>
    <g transform="rotate(38.91891891891892 50 50)">
        <rect x="38" y="22.5" rx="7.68" ry="5.5" width="24" height="11" fill="#71a2fe">
            <animate attributeName="opacity" values="1;0" keyTimes="0;1" dur="1.408450704225352s"
                     begin="-1.2181195279786827s" repeatCount="indefinite"></animate>
        </rect>
    </g>
    <g transform="rotate(48.648648648648646 50 50)">
        <rect x="38" y="22.5" rx="7.68" ry="5.5" width="24" height="11" fill="#71a2fe">
            <animate attributeName="opacity" values="1;0" keyTimes="0;1" dur="1.408450704225352s"
                     begin="-1.180053292729349s" repeatCount="indefinite"></animate>
        </rect>
    </g>
    <g transform="rotate(58.37837837837838 50 50)">
        <rect x="38" y="22.5" rx="7.68" ry="5.5" width="24" height="11" fill="#71a2fe">
            <animate attributeName="opacity" values="1;0" keyTimes="0;1" dur="1.408450704225352s"
                     begin="-1.141987057480015s" repeatCount="indefinite"></animate>
        </rect>
    </g>
    <g transform="rotate(68.10810810810811 50 50)">
        <rect x="38" y="22.5" rx="7.68" ry="5.5" width="24" height="11" fill="#71a2fe">
            <animate attributeName="opacity" values="1;0" keyTimes="0;1" dur="1.408450704225352s"
                     begin="-1.1039208222306813s" repeatCount="indefinite"></animate>
        </rect>
    </g>
    <g transform="rotate(77.83783783783784 50 50)">
        <rect x="38" y="22.5" rx="7.68" ry="5.5" width="24" height="11" fill="#71a2fe">
            <animate attributeName="opacity" values="1;0" keyTimes="0;1" dur="1.408450704225352s"
                     begin="-1.0658545869813474s" repeatCount="indefinite"></animate>
        </rect>
    </g>
    <g transform="rotate(87.56756756756756 50 50)">
        <rect x="38" y="22.5" rx="7.68" ry="5.5" width="24" height="11" fill="#71a2fe">
            <animate attributeName="opacity" values="1;0" keyTimes="0;1" dur="1.408450704225352s"
                     begin="-1.0277883517320137s" repeatCount="indefinite"></animate>
        </rect>
    </g>
    <g transform="rotate(97.29729729729729 50 50)">
        <rect x="38" y="22.5" rx="7.68" ry="5.5" width="24" height="11" fill="#71a2fe">
            <animate attributeName="opacity" values="1;0" keyTimes="0;1" dur="1.408450704225352s"
                     begin="-0.9897221164826797s" repeatCount="indefinite"></animate>
        </rect>
    </g>
    <g transform="rotate(107.02702702702703 50 50)">
        <rect x="38" y="22.5" rx="7.68" ry="5.5" width="24" height="11" fill="#71a2fe">
            <animate attributeName="opacity" values="1;0" keyTimes="0;1" dur="1.408450704225352s"
                     begin="-0.9516558812333459s" repeatCount="indefinite"></animate>
        </rect>
    </g>
    <g transform="rotate(116.75675675675676 50 50)">
        <rect x="38" y="22.5" rx="7.68" ry="5.5" width="24" height="11" fill="#71a2fe">
            <animate attributeName="opacity" values="1;0" keyTimes="0;1" dur="1.408450704225352s"
                     begin="-0.913589645984012s" repeatCount="indefinite"></animate>
        </rect>
    </g>
    <g transform="rotate(126.48648648648648 50 50)">
        <rect x="38" y="22.5" rx="7.68" ry="5.5" width="24" height="11" fill="#71a2fe">
            <animate attributeName="opacity" values="1;0" keyTimes="0;1" dur="1.408450704225352s"
                     begin="-0.8755234107346782s" repeatCount="indefinite"></animate>
        </rect>
    </g>
    <g transform="rotate(136.21621621621622 50 50)">
        <rect x="38" y="22.5" rx="7.68" ry="5.5" width="24" height="11" fill="#71a2fe">
            <animate attributeName="opacity" values="1;0" keyTimes="0;1" dur="1.408450704225352s"
                     begin="-0.8374571754853444s" repeatCount="indefinite"></animate>
        </rect>
    </g>
    <g transform="rotate(145.94594594594594 50 50)">
        <rect x="38" y="22.5" rx="7.68" ry="5.5" width="24" height="11" fill="#71a2fe">
            <animate attributeName="opacity" values="1;0" keyTimes="0;1" dur="1.408450704225352s"
                     begin="-0.7993909402360105s" repeatCount="indefinite"></animate>
        </rect>
    </g>
    <g transform="rotate(155.67567567567568 50 50)">
        <rect x="38" y="22.5" rx="7.68" ry="5.5" width="24" height="11" fill="#71a2fe">
            <animate attributeName="opacity" values="1;0" keyTimes="0;1" dur="1.408450704225352s"
                     begin="-0.7613247049866767s" repeatCount="indefinite"></animate>
        </rect>
    </g>
    <g transform="rotate(165.40540540540542 50 50)">
        <rect x="38" y="22.5" rx="7.68" ry="5.5" width="24" height="11" fill="#71a2fe">
            <animate attributeName="opacity" values="1;0" keyTimes="0;1" dur="1.408450704225352s"
                     begin="-0.7232584697373429s" repeatCount="indefinite"></animate>
        </rect>
    </g>
    <g transform="rotate(175.13513513513513 50 50)">
        <rect x="38" y="22.5" rx="7.68" ry="5.5" width="24" height="11" fill="#71a2fe">
            <animate attributeName="opacity" values="1;0" keyTimes="0;1" dur="1.408450704225352s"
                     begin="-0.685192234488009s" repeatCount="indefinite"></animate>
        </rect>
    </g>
    <g transform="rotate(184.86486486486487 50 50)">
        <rect x="38" y="22.5" rx="7.68" ry="5.5" width="24" height="11" fill="#71a2fe">
            <animate attributeName="opacity" values="1;0" keyTimes="0;1" dur="1.408450704225352s"
                     begin="-0.6471259992386752s" repeatCount="indefinite"></animate>
        </rect>
    </g>
    <g transform="rotate(194.59459459459458 50 50)">
        <rect x="38" y="22.5" rx="7.68" ry="5.5" width="24" height="11" fill="#71a2fe">
            <animate attributeName="opacity" values="1;0" keyTimes="0;1" dur="1.408450704225352s"
                     begin="-0.6090597639893414s" repeatCount="indefinite"></animate>
        </rect>
    </g>
    <g transform="rotate(204.32432432432432 50 50)">
        <rect x="38" y="22.5" rx="7.68" ry="5.5" width="24" height="11" fill="#71a2fe">
            <animate attributeName="opacity" values="1;0" keyTimes="0;1" dur="1.408450704225352s"
                     begin="-0.5709935287400075s" repeatCount="indefinite"></animate>
        </rect>
    </g>
    <g transform="rotate(214.05405405405406 50 50)">
        <rect x="38" y="22.5" rx="7.68" ry="5.5" width="24" height="11" fill="#71a2fe">
            <animate attributeName="opacity" values="1;0" keyTimes="0;1" dur="1.408450704225352s"
                     begin="-0.5329272934906737s" repeatCount="indefinite"></animate>
        </rect>
    </g>
    <g transform="rotate(223.78378378378378 50 50)">
        <rect x="38" y="22.5" rx="7.68" ry="5.5" width="24" height="11" fill="#71a2fe">
            <animate attributeName="opacity" values="1;0" keyTimes="0;1" dur="1.408450704225352s"
                     begin="-0.49486105824133986s" repeatCount="indefinite"></animate>
        </rect>
    </g>
    <g transform="rotate(233.51351351351352 50 50)">
        <rect x="38" y="22.5" rx="7.68" ry="5.5" width="24" height="11" fill="#71a2fe">
            <animate attributeName="opacity" values="1;0" keyTimes="0;1" dur="1.408450704225352s"
                     begin="-0.456794822992006s" repeatCount="indefinite"></animate>
        </rect>
    </g>
    <g transform="rotate(243.24324324324326 50 50)">
        <rect x="38" y="22.5" rx="7.68" ry="5.5" width="24" height="11" fill="#71a2fe">
            <animate attributeName="opacity" values="1;0" keyTimes="0;1" dur="1.408450704225352s"
                     begin="-0.4187285877426722s" repeatCount="indefinite"></animate>
        </rect>
    </g>
    <g transform="rotate(252.97297297297297 50 50)">
        <rect x="38" y="22.5" rx="7.68" ry="5.5" width="24" height="11" fill="#71a2fe">
            <animate attributeName="opacity" values="1;0" keyTimes="0;1" dur="1.408450704225352s"
                     begin="-0.38066235249333835s" repeatCount="indefinite"></animate>
        </rect>
    </g>
    <g transform="rotate(262.7027027027027 50 50)">
        <rect x="38" y="22.5" rx="7.68" ry="5.5" width="24" height="11" fill="#71a2fe">
            <animate attributeName="opacity" values="1;0" keyTimes="0;1" dur="1.408450704225352s"
                     begin="-0.3425961172440045s" repeatCount="indefinite"></animate>
        </rect>
    </g>
    <g transform="rotate(272.43243243243245 50 50)">
        <rect x="38" y="22.5" rx="7.68" ry="5.5" width="24" height="11" fill="#71a2fe">
            <animate attributeName="opacity" values="1;0" keyTimes="0;1" dur="1.408450704225352s"
                     begin="-0.3045298819946707s" repeatCount="indefinite"></animate>
        </rect>
    </g>
    <g transform="rotate(282.1621621621622 50 50)">
        <rect x="38" y="22.5" rx="7.68" ry="5.5" width="24" height="11" fill="#71a2fe">
            <animate attributeName="opacity" values="1;0" keyTimes="0;1" dur="1.408450704225352s"
                     begin="-0.26646364674533685s" repeatCount="indefinite"></animate>
        </rect>
    </g>
    <g transform="rotate(291.8918918918919 50 50)">
        <rect x="38" y="22.5" rx="7.68" ry="5.5" width="24" height="11" fill="#71a2fe">
            <animate attributeName="opacity" values="1;0" keyTimes="0;1" dur="1.408450704225352s"
                     begin="-0.228397411496003s" repeatCount="indefinite"></animate>
        </rect>
    </g>
    <g transform="rotate(301.6216216216216 50 50)">
        <rect x="38" y="22.5" rx="7.68" ry="5.5" width="24" height="11" fill="#71a2fe">
            <animate attributeName="opacity" values="1;0" keyTimes="0;1" dur="1.408450704225352s"
                     begin="-0.19033117624666918s" repeatCount="indefinite"></animate>
        </rect>
    </g>
    <g transform="rotate(311.35135135135135 50 50)">
        <rect x="38" y="22.5" rx="7.68" ry="5.5" width="24" height="11" fill="#71a2fe">
            <animate attributeName="opacity" values="1;0" keyTimes="0;1" dur="1.408450704225352s"
                     begin="-0.15226494099733534s" repeatCount="indefinite"></animate>
        </rect>
    </g>
    <g transform="rotate(321.0810810810811 50 50)">
        <rect x="38" y="22.5" rx="7.68" ry="5.5" width="24" height="11" fill="#71a2fe">
            <animate attributeName="opacity" values="1;0" keyTimes="0;1" dur="1.408450704225352s"
                     begin="-0.1141987057480015s" repeatCount="indefinite"></animate>
        </rect>
    </g>
    <g transform="rotate(330.81081081081084 50 50)">
        <rect x="38" y="22.5" rx="7.68" ry="5.5" width="24" height="11" fill="#71a2fe">
            <animate attributeName="opacity" values="1;0" keyTimes="0;1" dur="1.408450704225352s"
                     begin="-0.07613247049866767s" repeatCount="indefinite"></animate>
        </rect>
    </g>
    <g transform="rotate(340.5405405405405 50 50)">
        <rect x="38" y="22.5" rx="7.68" ry="5.5" width="24" height="11" fill="#71a2fe">
            <animate attributeName="opacity" values="1;0" keyTimes="0;1" dur="1.408450704225352s"
                     begin="-0.038066235249333835s" repeatCount="indefinite"></animate>
        </rect>
    </g>
    <g transform="rotate(350.27027027027026 50 50)">
        <rect x="38" y="22.5" rx="7.68" ry="5.5" width="24" height="11" fill="#71a2fe">
            <animate attributeName="opacity" values="1;0" keyTimes="0;1" dur="1.408450704225352s" begin="0s"
                     repeatCount="indefinite"></animate>
        </rect>
    </g>
</svg>